<svg version="1.1" viewBox="0.0 0.0 540.4803149606299 540.0" fill="none" stroke="none" stroke-linecap="square" stroke-miterlimit="10" xmlns:xlink="http://www.w3.org/1999/xlink" xmlns="http://www.w3.org/2000/svg"><clipPath id="g3c2eadace17_0_24.0"><path d="m0 0l540.4803 0l0 540.0l-540.4803 0l0 -540.0z" clip-rule="nonzero"/></clipPath><g clip-path="url(#g3c2eadace17_0_24.0)"><path fill="#000000" fill-opacity="0.0" d="m0 0l540.4803 0l0 540.0l-540.4803 0z" fill-rule="evenodd"/><path fill="#f9cb9c" d="m453.82678 520.0l-363.65356 0c-13.306763 0 -26.06852 -5.286072 -35.477825 -14.695404c-9.409306 -9.409302 -14.6954 -22.171051 -14.6954 -35.477814l0 -50.17325c0 -0.0021362305 0.0017318726 -0.0038452148 0.003868103 -0.0038452148l463.99612 0.0038452148l0 0c0.0021362305 0 0.0038757324 0.001739502 0.0038757324 0.0038757324l-0.0038757324 50.169373l0 0c0 27.7099 -22.463318 50.173218 -50.173218 50.173218z" fill-rule="evenodd"/><path stroke="#e69138" stroke-width="21.58267716535433" stroke-linejoin="round" stroke-linecap="butt" d="m453.82678 520.0l-363.65356 0c-13.306763 0 -26.06852 -5.286072 -35.477825 -14.695404c-9.409306 -9.409302 -14.6954 -22.171051 -14.6954 -35.477814l0 -50.17325c0 -0.0021362305 0.0017318726 -0.0038452148 0.003868103 -0.0038452148l463.99612 0.0038452148l0 0c0.0021362305 0 0.0038757324 0.001739502 0.0038757324 0.0038757324l-0.0038757324 50.169373l0 0c0 27.7099 -22.463318 50.173218 -50.173218 50.173218z" fill-rule="evenodd"/><path fill="#f9cb9c" d="m54.13531 176.11868c-21.340523 -52.32525 14.905483 -106.88927 91.20996 -137.30566c76.30449 -30.416405 176.94376 -30.417437 253.25006 -0.0025939941c76.306335 30.414845 112.555664 84.9781 91.21832 137.30379z" fill-rule="evenodd"/><path stroke="#e69138" stroke-width="21.58267716535433" stroke-linejoin="round" stroke-linecap="butt" d="m54.13531 176.11868c-21.340523 -52.32525 14.905483 -106.88927 91.20996 -137.30566c76.30449 -30.416405 176.94376 -30.417437 253.25006 -0.0025939941c76.306335 30.414845 112.555664 84.9781 91.21832 137.30379z" fill-rule="evenodd"/><path fill="#000000" fill-opacity="0.0" d="m54.748234 321.52832c14.417065 -9.607605 57.668262 -57.6456 86.502396 -57.6456c28.834137 0 57.668274 57.6456 86.50241 57.6456c28.834122 0 57.66826 -57.6456 86.502396 -57.6456c28.834137 0 57.668274 57.6456 86.50241 57.6456c28.834137 0 72.08533 -48.037994 86.50238 -57.6456" fill-rule="evenodd"/><path stroke="#e06666" stroke-width="21.58267716535433" stroke-linejoin="round" stroke-linecap="butt" d="m54.748234 321.52832c14.417065 -9.607605 57.668262 -57.6456 86.502396 -57.6456c28.834137 0 57.668274 57.6456 86.50241 57.6456c28.834122 0 57.66826 -57.6456 86.502396 -57.6456c28.834137 0 57.668274 57.6456 86.50241 57.6456c28.834137 0 72.08533 -48.037994 86.50238 -57.6456" fill-rule="evenodd"/><path fill="#000000" fill-opacity="0.0" d="m54.748234 357.86328c14.417065 -6.4067993 57.668262 -38.440796 86.502396 -38.440796c28.834137 0 57.668274 38.440796 86.50241 38.440796c28.834122 0 57.66826 -38.440796 86.502396 -38.440796c28.834137 0 57.668274 38.440796 86.50241 38.440796c28.834137 0 72.08533 -32.033997 86.50238 -38.440796" fill-rule="evenodd"/><path stroke="#ffd966" stroke-width="21.58267716535433" stroke-linejoin="round" stroke-linecap="butt" d="m54.748234 357.86328c14.417065 -6.4067993 57.668262 -38.440796 86.502396 -38.440796c28.834137 0 57.668274 38.440796 86.50241 38.440796c28.834122 0 57.66826 -38.440796 86.502396 -38.440796c28.834137 0 57.668274 38.440796 86.50241 38.440796c28.834137 0 72.08533 -32.033997 86.50238 -38.440796" fill-rule="evenodd"/><path fill="#000000" fill-opacity="0.0" d="m54.748234 389.96252c14.417065 -3.2036133 57.668262 -19.221619 86.502396 -19.221619c28.834137 0 57.668274 19.221619 86.50241 19.221619c28.834122 0 57.66826 -19.221619 86.502396 -19.221619c28.834137 0 57.668274 19.221619 86.50241 19.221619c28.834137 0 72.08533 -16.018005 86.50238 -19.221619" fill-rule="evenodd"/><path stroke="#783f04" stroke-width="21.58267716535433" stroke-linejoin="round" stroke-linecap="butt" d="m54.748234 389.96252c14.417065 -3.2036133 57.668262 -19.221619 86.502396 -19.221619c28.834137 0 57.668274 19.221619 86.50241 19.221619c28.834122 0 57.66826 -19.221619 86.502396 -19.221619c28.834137 0 57.668274 19.221619 86.50241 19.221619c28.834137 0 72.08533 -16.018005 86.50238 -19.221619" fill-rule="evenodd"/><path fill="#000000" fill-opacity="0.0" d="m54.748234 280.98544c14.417065 -12.809998 57.668262 -76.859985 86.502396 -76.859985c28.834137 0 57.668274 76.859985 86.50241 76.859985c28.834122 0 57.66826 -76.859985 86.502396 -76.859985c28.834137 0 57.668274 76.859985 86.50241 76.859985c28.834137 0 72.08533 -64.04999 86.50238 -76.859985" fill-rule="evenodd"/><path stroke="#93c47d" stroke-width="21.58267716535433" stroke-linejoin="round" stroke-linecap="butt" d="m54.748234 280.98544c14.417065 -12.809998 57.668262 -76.859985 86.502396 -76.859985c28.834137 0 57.668274 76.859985 86.50241 76.859985c28.834122 0 57.66826 -76.859985 86.502396 -76.859985c28.834137 0 57.668274 76.859985 86.50241 76.859985c28.834137 0 72.08533 -64.04999 86.50238 -76.859985" fill-rule="evenodd"/></g></svg>