<svg version="1.1" viewBox="0.0 0.0 540.4803149606299 540.0" fill="none" stroke="none" stroke-linecap="square" stroke-miterlimit="10" xmlns:xlink="http://www.w3.org/1999/xlink" xmlns="http://www.w3.org/2000/svg"><clipPath id="g3c2d9782bfc_0_54.0"><path d="m0 0l540.4803 0l0 540.0l-540.4803 0l0 -540.0z" clip-rule="nonzero"/></clipPath><g clip-path="url(#g3c2d9782bfc_0_54.0)"><path fill="#000000" fill-opacity="0.0" d="m0 0l540.4803 0l0 540.0l-540.4803 0z" fill-rule="evenodd"/><path fill="#f9cb9c" d="m477.17706 526.196l-413.95276 0c-13.482185 0 -26.412178 -5.355835 -35.945522 -14.88916c-9.533346 -9.533325 -14.889124 -22.463318 -14.889124 -35.945526l0 -50.834625c0 -0.002380371 0.0019235611 -0.0043029785 0.0042972565 -0.0043029785l515.61774 0.0043029785l0 0c0.002380371 0 0.004272461 0.0019226074 0.004272461 0.0043029785l-0.004272461 50.830322l0 0c0 28.075226 -22.75943 50.834686 -50.834656 50.834686z" fill-rule="evenodd"/><path stroke="#e69138" stroke-width="21.771653543307085" stroke-linejoin="round" stroke-linecap="butt" d="m477.17706 526.196l-413.95276 0c-13.482185 0 -26.412178 -5.355835 -35.945522 -14.88916c-9.533346 -9.533325 -14.889124 -22.463318 -14.889124 -35.945526l0 -50.834625c0 -0.002380371 0.0019235611 -0.0043029785 0.0042972565 -0.0043029785l515.61774 0.0043029785l0 0c0.002380371 0 0.004272461 0.0019226074 0.004272461 0.0043029785l-0.004272461 50.830322l0 0c0 28.075226 -22.75943 50.834686 -50.834656 50.834686z" fill-rule="evenodd"/><path fill="#f9cb9c" d="m29.505732 178.51437l0 0c-26.194838 -53.39115 13.13579 -109.77787 98.564476 -141.30788c85.428696 -31.530014 198.87764 -31.531164 284.3086 -0.0028839111c85.43097 31.528286 124.765686 87.9142 98.57471 141.30588z" fill-rule="evenodd"/><path stroke="#e69138" stroke-width="21.771653543307085" stroke-linejoin="round" stroke-linecap="butt" d="m29.505732 178.51437l0 0c-26.194838 -53.39115 13.13579 -109.77787 98.564476 -141.30788c85.428696 -31.530014 198.87764 -31.531164 284.3086 -0.0028839111c85.43097 31.528286 124.765686 87.9142 98.57471 141.30588z" fill-rule="evenodd"/><path fill="#000000" fill-opacity="0.0" d="m9.658635 398.70157l104.3712 -65.31122l104.37119 65.31122l104.371216 -65.31122l104.371185 65.31122l104.371216 -65.31122" fill-rule="evenodd"/><path stroke="#783f04" stroke-width="21.771653543307085" stroke-linejoin="round" stroke-linecap="butt" d="m9.658635 398.70157l104.3712 -65.31122l104.37119 65.31122l104.371216 -65.31122l104.371185 65.31122l104.371216 -65.31122" fill-rule="evenodd"/><path fill="#000000" fill-opacity="0.0" d="m9.658635 355.15976l104.3712 -65.31119l104.37119 65.31119l104.371216 -65.31119l104.371185 65.31119l104.371216 -65.31119" fill-rule="evenodd"/><path stroke="#ffd966" stroke-width="10.887139107611548" stroke-linejoin="round" stroke-linecap="butt" d="m9.658635 355.15976l104.3712 -65.31119l104.37119 65.31119l104.371216 -65.31119l104.371185 65.31119l104.371216 -65.31119" fill-rule="evenodd"/><path fill="#000000" fill-opacity="0.0" d="m9.658635 311.61795l104.3712 -65.31119l104.37119 65.31119l104.371216 -65.31119l104.371185 65.31119l104.371216 -65.31119" fill-rule="evenodd"/><path stroke="#e06666" stroke-width="21.771653543307085" stroke-linejoin="round" stroke-linecap="butt" d="m9.658635 311.61795l104.3712 -65.31119l104.37119 65.31119l104.371216 -65.31119l104.371185 65.31119l104.371216 -65.31119" fill-rule="evenodd"/><path fill="#000000" fill-opacity="0.0" d="m9.658635 268.07617l104.3712 -65.3112l104.37119 65.3112l104.371216 -65.3112l104.371185 65.3112l104.371216 -65.3112" fill-rule="evenodd"/><path stroke="#93c47d" stroke-width="10.887139107611548" stroke-linejoin="round" stroke-linecap="butt" d="m9.658635 268.07617l104.3712 -65.3112l104.37119 65.3112l104.371216 -65.3112l104.371185 65.3112l104.371216 -65.3112" fill-rule="evenodd"/></g></svg>